# xmcd
#
# Track frame offsets:
#	150
#	19562
#	33245
#	50995
#	68930
#	82960
#	102307
#	114870
#	127270
#	138970
#	152320
#	167182
#
# Disc length: 2420 seconds
# Revision: 10
# Processed by: cddbd v1.5.2PL0 Copyright (c) Steve Scherf et al.
# Submitted via: dBpowerAMP V12.0
#
DISCID=9809720c
DTITLE=Gary Allan - Smoke Rings in the Dark
DYEAR=1999
DGENRE=Country
TTITLE0=Smoke Rings in the Dark
TTITLE1=Right Where I Need to Be
TTITLE2=Don’t Tell Mama
TTITLE3=Lovin’ You Against My Will
TTITLE4=Sorry
TTITLE5=Cryin’ for Nothin’
TTITLE6=Bourbon Borderline
TTITLE7=Runaway
TTITLE8=Learning to Live With Me
TTITLE9=Cowboy Blues
TTITLE10=I’m the One
TTITLE11=Greenfields
EXTD=
EXTT0=
EXTT1=
EXTT2=
EXTT3=
EXTT4=
EXTT5=
EXTT6=
EXTT7=
EXTT8=
EXTT9=
EXTT10=
EXTT11=
PLAYORDER=
